<svg xmlns="http://www.w3.org/2000/svg" xmlns:xlink="http://www.w3.org/1999/xlink" width="500" zoomAndPan="magnify" viewBox="0 0 375 374.999991" height="500" preserveAspectRatio="xMidYMid meet" version="1.0"><path fill="#000000" d="M 273.835938 162.078125 L 187.484375 248.523438 C 187.316406 248.695312 187.109375 248.777344 186.871094 248.773438 C 186.632812 248.78125 186.429688 248.695312 186.265625 248.523438 L 100.289062 162.148438 C 98.800781 160.644531 97.179688 159.300781 95.421875 158.121094 C 93.667969 156.941406 91.8125 155.941406 89.859375 155.128906 C 87.90625 154.316406 85.894531 153.703125 83.820312 153.292969 C 81.746094 152.878906 79.652344 152.675781 77.535156 152.679688 L 77.503906 152.679688 C 75.925781 152.679688 74.351562 152.792969 72.789062 153.027344 C 71.222656 153.257812 69.683594 153.601562 68.171875 154.0625 C 66.660156 154.519531 65.1875 155.089844 63.757812 155.765625 C 62.328125 156.441406 60.957031 157.21875 59.640625 158.097656 C 58.324219 158.976562 57.082031 159.945312 55.910156 161.007812 C 54.738281 162.070312 53.648438 163.210938 52.644531 164.4375 C 51.640625 165.660156 50.734375 166.949219 49.917969 168.304688 C 49.105469 169.664062 48.394531 171.070312 47.789062 172.535156 C 47.183594 173.996094 46.6875 175.492188 46.300781 177.027344 C 45.914062 178.5625 45.644531 180.117188 45.488281 181.695312 C 45.332031 183.269531 45.289062 184.847656 45.367188 186.425781 C 45.441406 188.007812 45.632812 189.574219 45.941406 191.128906 C 46.246094 192.679688 46.664062 194.203125 47.195312 195.695312 C 47.726562 197.183594 48.363281 198.628906 49.105469 200.027344 C 49.847656 201.421875 50.691406 202.757812 51.632812 204.03125 C 52.570312 205.304688 53.597656 206.5 54.714844 207.621094 L 145.917969 299.25 L 182.75 335.734375 C 183.050781 336.027344 183.371094 336.292969 183.722656 336.523438 C 184.070312 336.753906 184.441406 336.949219 184.828125 337.109375 C 185.214844 337.265625 185.613281 337.386719 186.027344 337.46875 C 186.4375 337.546875 186.851562 337.585938 187.269531 337.585938 C 187.691406 337.585938 188.105469 337.542969 188.515625 337.460938 C 188.925781 337.378906 189.324219 337.253906 189.710938 337.09375 C 190.097656 336.933594 190.464844 336.738281 190.8125 336.503906 C 191.160156 336.269531 191.484375 336.003906 191.78125 335.707031 L 319.402344 207.621094 C 320.148438 206.875 320.851562 206.089844 321.519531 205.273438 C 322.1875 204.457031 322.8125 203.609375 323.398438 202.734375 C 323.980469 201.855469 324.523438 200.949219 325.015625 200.019531 C 325.511719 199.089844 325.960938 198.132812 326.363281 197.160156 C 326.765625 196.183594 327.117188 195.191406 327.421875 194.179688 C 327.726562 193.171875 327.980469 192.148438 328.1875 191.113281 C 328.390625 190.078125 328.542969 189.035156 328.644531 187.984375 C 328.746094 186.9375 328.796875 185.882812 328.796875 184.828125 C 328.796875 183.773438 328.742188 182.722656 328.636719 181.671875 C 328.535156 180.621094 328.378906 179.578125 328.171875 178.542969 C 327.964844 177.511719 327.707031 176.488281 327.398438 175.480469 C 327.09375 174.46875 326.738281 173.476562 326.332031 172.503906 C 325.929688 171.53125 325.476562 170.578125 324.980469 169.648438 C 324.484375 168.71875 323.941406 167.8125 323.355469 166.9375 C 322.769531 166.0625 322.140625 165.214844 321.472656 164.398438 C 320.800781 163.585938 320.09375 162.804688 319.347656 162.058594 C 318.601562 161.3125 317.820312 160.605469 317.007812 159.9375 C 316.191406 159.269531 315.34375 158.640625 314.46875 158.058594 C 313.59375 157.472656 312.6875 156.929688 311.757812 156.433594 C 310.828125 155.9375 309.878906 155.488281 308.902344 155.082031 C 307.929688 154.679688 306.9375 154.328125 305.929688 154.019531 C 304.921875 153.714844 303.898438 153.460938 302.867188 153.253906 C 301.832031 153.050781 300.792969 152.894531 299.742188 152.792969 C 298.691406 152.6875 297.640625 152.636719 296.589844 152.636719 C 295.535156 152.640625 294.484375 152.691406 293.433594 152.792969 C 292.386719 152.898438 291.34375 153.054688 290.308594 153.257812 C 289.277344 153.464844 288.257812 153.722656 287.246094 154.027344 C 286.238281 154.335938 285.25 154.691406 284.273438 155.09375 C 283.300781 155.5 282.347656 155.949219 281.421875 156.445312 C 280.492188 156.945312 279.589844 157.484375 278.710938 158.074219 C 277.835938 158.660156 276.992188 159.285156 276.175781 159.957031 C 275.359375 160.625 274.582031 161.332031 273.835938 162.078125 Z M 310.335938 198.570312 L 187.226562 322.136719 L 154.953125 290.167969 L 63.78125 198.570312 C 63.109375 197.894531 62.492188 197.175781 61.925781 196.410156 C 61.359375 195.640625 60.851562 194.839844 60.40625 193.996094 C 59.957031 193.15625 59.574219 192.285156 59.253906 191.390625 C 58.933594 190.492188 58.683594 189.574219 58.5 188.640625 C 58.316406 187.707031 58.199219 186.761719 58.15625 185.8125 C 58.109375 184.859375 58.132812 183.910156 58.226562 182.960938 C 58.320312 182.011719 58.484375 181.078125 58.71875 180.152344 C 58.949219 179.230469 59.25 178.328125 59.613281 177.445312 C 59.980469 176.566406 60.40625 175.71875 60.898438 174.902344 C 61.386719 174.085938 61.933594 173.308594 62.539062 172.574219 C 63.144531 171.835938 63.796875 171.148438 64.503906 170.507812 C 65.210938 169.871094 65.957031 169.285156 66.75 168.757812 C 67.542969 168.226562 68.367188 167.761719 69.230469 167.351562 C 70.089844 166.945312 70.976562 166.605469 71.886719 166.328125 C 72.796875 166.050781 73.722656 165.84375 74.664062 165.707031 C 75.605469 165.566406 76.554688 165.496094 77.503906 165.496094 L 77.523438 165.496094 C 78.796875 165.496094 80.058594 165.617188 81.308594 165.867188 C 82.554688 166.113281 83.769531 166.484375 84.945312 166.972656 C 86.121094 167.460938 87.238281 168.0625 88.292969 168.773438 C 89.351562 169.484375 90.328125 170.292969 91.222656 171.199219 L 177.191406 257.570312 C 178.46875 258.859375 179.945312 259.855469 181.621094 260.554688 C 183.296875 261.25 185.042969 261.597656 186.859375 261.59375 L 186.871094 261.59375 C 188.6875 261.597656 190.429688 261.253906 192.105469 260.558594 C 193.78125 259.867188 195.257812 258.875 196.539062 257.585938 L 282.890625 171.140625 C 283.339844 170.695312 283.808594 170.269531 284.300781 169.867188 C 284.789062 169.464844 285.300781 169.089844 285.828125 168.738281 C 286.355469 168.386719 286.898438 168.058594 287.457031 167.761719 C 288.015625 167.464844 288.589844 167.191406 289.175781 166.949219 C 289.761719 166.707031 290.359375 166.496094 290.964844 166.3125 C 291.574219 166.128906 292.1875 165.972656 292.808594 165.851562 C 293.429688 165.726562 294.058594 165.636719 294.6875 165.574219 C 295.320312 165.511719 295.953125 165.480469 296.585938 165.480469 C 297.21875 165.480469 297.851562 165.511719 298.484375 165.574219 C 299.113281 165.636719 299.738281 165.730469 300.363281 165.855469 C 300.984375 165.976562 301.597656 166.132812 302.203125 166.316406 C 302.8125 166.5 303.40625 166.714844 303.992188 166.957031 C 304.578125 167.199219 305.152344 167.46875 305.710938 167.769531 C 306.269531 168.066406 306.8125 168.394531 307.339844 168.746094 C 307.867188 169.097656 308.378906 169.476562 308.867188 169.878906 C 309.359375 170.28125 309.828125 170.707031 310.277344 171.152344 C 310.726562 171.601562 311.152344 172.070312 311.554688 172.5625 C 311.957031 173.050781 312.332031 173.5625 312.6875 174.089844 C 313.039062 174.617188 313.367188 175.160156 313.664062 175.71875 C 313.964844 176.277344 314.238281 176.851562 314.480469 177.4375 C 314.722656 178.023438 314.9375 178.617188 315.125 179.226562 C 315.308594 179.832031 315.464844 180.445312 315.589844 181.070312 C 315.714844 181.691406 315.808594 182.320312 315.871094 182.949219 C 315.933594 183.582031 315.964844 184.214844 315.96875 184.847656 C 315.96875 185.484375 315.941406 186.117188 315.878906 186.75 C 315.820312 187.378906 315.726562 188.007812 315.605469 188.628906 C 315.484375 189.253906 315.332031 189.867188 315.148438 190.476562 C 314.964844 191.085938 314.753906 191.683594 314.515625 192.269531 C 314.273438 192.855469 314.003906 193.429688 313.707031 193.992188 C 313.410156 194.550781 313.085938 195.097656 312.734375 195.625 C 312.382812 196.152344 312.007812 196.664062 311.609375 197.15625 C 311.207031 197.648438 310.785156 198.121094 310.335938 198.570312 Z M 310.335938 198.570312 " fill-opacity="1" fill-rule="nonzero"/><path fill="#000000" d="M 273.835938 49.488281 L 187.484375 135.933594 C 187.316406 136.101562 187.113281 136.1875 186.875 136.183594 C 186.636719 136.183594 186.433594 136.097656 186.265625 135.929688 L 100.289062 49.558594 C 98.800781 48.054688 97.179688 46.710938 95.421875 45.53125 C 93.667969 44.347656 91.8125 43.351562 89.863281 42.539062 C 87.910156 41.722656 85.894531 41.109375 83.820312 40.699219 C 81.746094 40.285156 79.652344 40.078125 77.535156 40.082031 L 77.503906 40.082031 C 75.925781 40.082031 74.351562 40.199219 72.789062 40.429688 C 71.222656 40.664062 69.6875 41.007812 68.171875 41.46875 C 66.660156 41.925781 65.1875 42.496094 63.757812 43.171875 C 62.332031 43.847656 60.957031 44.625 59.644531 45.503906 C 58.328125 46.382812 57.085938 47.351562 55.914062 48.414062 C 54.742188 49.476562 53.652344 50.621094 52.648438 51.84375 C 51.648438 53.066406 50.738281 54.355469 49.925781 55.710938 C 49.109375 57.070312 48.398438 58.476562 47.792969 59.941406 C 47.1875 61.402344 46.691406 62.898438 46.304688 64.433594 C 45.921875 65.96875 45.648438 67.523438 45.492188 69.097656 C 45.335938 70.671875 45.296875 72.25 45.371094 73.832031 C 45.445312 75.414062 45.636719 76.980469 45.945312 78.53125 C 46.25 80.085938 46.667969 81.605469 47.199219 83.097656 C 47.730469 84.589844 48.367188 86.03125 49.109375 87.429688 C 49.851562 88.828125 50.691406 90.160156 51.632812 91.433594 C 52.570312 92.707031 53.597656 93.902344 54.714844 95.023438 L 145.917969 186.652344 L 182.75 223.136719 C 183.050781 223.433594 183.371094 223.695312 183.722656 223.925781 C 184.070312 224.15625 184.441406 224.351562 184.828125 224.511719 C 185.214844 224.671875 185.613281 224.789062 186.027344 224.871094 C 186.4375 224.953125 186.851562 224.992188 187.269531 224.988281 C 187.691406 224.988281 188.105469 224.945312 188.515625 224.863281 C 188.925781 224.78125 189.324219 224.660156 189.710938 224.5 C 190.097656 224.335938 190.464844 224.140625 190.8125 223.90625 C 191.160156 223.671875 191.484375 223.410156 191.78125 223.113281 L 319.402344 95.023438 C 320.148438 94.277344 320.851562 93.496094 321.519531 92.679688 C 322.183594 91.863281 322.808594 91.015625 323.394531 90.136719 C 323.976562 89.257812 324.515625 88.355469 325.011719 87.421875 C 325.503906 86.492188 325.953125 85.539062 326.355469 84.5625 C 326.757812 83.589844 327.109375 82.597656 327.414062 81.585938 C 327.71875 80.578125 327.972656 79.554688 328.175781 78.519531 C 328.378906 77.484375 328.53125 76.441406 328.632812 75.394531 C 328.734375 74.34375 328.785156 73.292969 328.78125 72.238281 C 328.78125 71.183594 328.726562 70.128906 328.621094 69.082031 C 328.519531 68.03125 328.363281 66.988281 328.15625 65.957031 C 327.949219 64.921875 327.691406 63.902344 327.382812 62.890625 C 327.078125 61.882812 326.722656 60.890625 326.316406 59.917969 C 325.914062 58.945312 325.460938 57.992188 324.964844 57.0625 C 324.464844 56.132812 323.925781 55.230469 323.339844 54.355469 C 322.753906 53.476562 322.125 52.632812 321.457031 51.816406 C 320.785156 51.003906 320.078125 50.222656 319.332031 49.476562 C 318.585938 48.734375 317.808594 48.027344 316.992188 47.359375 C 316.179688 46.691406 315.332031 46.0625 314.457031 45.476562 C 313.578125 44.890625 312.675781 44.351562 311.746094 43.855469 C 310.816406 43.359375 309.867188 42.910156 308.894531 42.503906 C 307.917969 42.101562 306.929688 41.75 305.921875 41.441406 C 304.910156 41.136719 303.890625 40.882812 302.859375 40.675781 C 301.824219 40.472656 300.785156 40.316406 299.734375 40.214844 C 298.6875 40.109375 297.636719 40.058594 296.582031 40.058594 C 295.527344 40.058594 294.476562 40.113281 293.429688 40.214844 C 292.382812 40.320312 291.339844 40.472656 290.308594 40.679688 C 289.273438 40.886719 288.253906 41.140625 287.246094 41.445312 C 286.238281 41.753906 285.246094 42.109375 284.273438 42.511719 C 283.300781 42.914062 282.347656 43.367188 281.417969 43.863281 C 280.492188 44.359375 279.585938 44.902344 278.710938 45.488281 C 277.835938 46.070312 276.988281 46.699219 276.175781 47.367188 C 275.359375 48.035156 274.582031 48.742188 273.835938 49.488281 Z M 310.335938 85.972656 L 187.226562 209.542969 L 154.953125 177.570312 L 63.78125 85.972656 C 63.109375 85.300781 62.492188 84.578125 61.925781 83.8125 C 61.359375 83.046875 60.855469 82.242188 60.40625 81.402344 C 59.960938 80.558594 59.578125 79.691406 59.257812 78.792969 C 58.9375 77.894531 58.6875 76.980469 58.503906 76.046875 C 58.320312 75.109375 58.203125 74.167969 58.160156 73.214844 C 58.113281 72.265625 58.136719 71.3125 58.234375 70.367188 C 58.328125 69.417969 58.492188 68.480469 58.722656 67.558594 C 58.953125 66.632812 59.253906 65.734375 59.617188 64.851562 C 59.984375 63.972656 60.410156 63.125 60.902344 62.308594 C 61.390625 61.492188 61.9375 60.714844 62.542969 59.980469 C 63.148438 59.242188 63.800781 58.554688 64.507812 57.917969 C 65.210938 57.277344 65.960938 56.691406 66.753906 56.164062 C 67.542969 55.636719 68.371094 55.167969 69.230469 54.761719 C 70.089844 54.351562 70.976562 54.011719 71.886719 53.734375 C 72.796875 53.457031 73.722656 53.25 74.664062 53.109375 C 75.605469 52.972656 76.554688 52.902344 77.503906 52.902344 L 77.523438 52.902344 C 78.796875 52.898438 80.058594 53.023438 81.308594 53.273438 C 82.558594 53.519531 83.769531 53.890625 84.945312 54.378906 C 86.121094 54.871094 87.238281 55.472656 88.292969 56.183594 C 89.351562 56.894531 90.328125 57.703125 91.222656 58.609375 L 177.191406 144.972656 C 178.492188 146.238281 179.976562 147.21875 181.652344 147.914062 C 183.324219 148.609375 185.066406 148.972656 186.878906 149.003906 C 188.691406 149.007812 190.433594 148.664062 192.109375 147.96875 C 193.785156 147.277344 195.261719 146.285156 196.539062 144.996094 L 282.890625 58.554688 C 283.339844 58.105469 283.808594 57.675781 284.296875 57.273438 C 284.789062 56.871094 285.296875 56.492188 285.824219 56.140625 C 286.351562 55.789062 286.898438 55.460938 287.457031 55.164062 C 288.015625 54.863281 288.589844 54.589844 289.175781 54.347656 C 289.761719 54.105469 290.359375 53.890625 290.964844 53.707031 C 291.570312 53.523438 292.1875 53.367188 292.808594 53.242188 C 293.429688 53.121094 294.058594 53.027344 294.691406 52.964844 C 295.320312 52.902344 295.953125 52.871094 296.589844 52.871094 C 297.222656 52.871094 297.855469 52.902344 298.488281 52.960938 C 299.121094 53.023438 299.746094 53.117188 300.367188 53.242188 C 300.992188 53.363281 301.605469 53.519531 302.214844 53.703125 C 302.820312 53.886719 303.417969 54.097656 304.003906 54.34375 C 304.589844 54.585938 305.164062 54.855469 305.722656 55.15625 C 306.28125 55.453125 306.828125 55.78125 307.355469 56.132812 C 307.882812 56.484375 308.390625 56.863281 308.882812 57.265625 C 309.375 57.667969 309.84375 58.09375 310.292969 58.539062 C 310.742188 58.988281 311.167969 59.460938 311.570312 59.949219 C 311.972656 60.441406 312.351562 60.949219 312.707031 61.476562 C 313.058594 62.003906 313.386719 62.550781 313.683594 63.109375 C 313.984375 63.667969 314.257812 64.242188 314.5 64.828125 C 314.742188 65.414062 314.957031 66.011719 315.144531 66.621094 C 315.328125 67.226562 315.484375 67.84375 315.609375 68.464844 C 315.730469 69.089844 315.828125 69.714844 315.890625 70.347656 C 315.953125 70.980469 315.984375 71.613281 315.984375 72.25 C 315.988281 72.882812 315.957031 73.515625 315.894531 74.148438 C 315.835938 74.78125 315.742188 75.410156 315.621094 76.03125 C 315.496094 76.65625 315.34375 77.273438 315.160156 77.878906 C 314.976562 78.488281 314.765625 79.085938 314.523438 79.671875 C 314.28125 80.261719 314.011719 80.835938 313.714844 81.394531 C 313.417969 81.957031 313.09375 82.5 312.742188 83.03125 C 312.390625 83.558594 312.011719 84.070312 311.609375 84.5625 C 311.210938 85.054688 310.785156 85.523438 310.335938 85.972656 Z M 310.335938 85.972656 " fill-opacity="1" fill-rule="nonzero"/></svg>